# xmcd
#
# Track frame offsets: 
#        150
#        10237
#        18248
#        29485
#        38726
#        46874
#        55464
#        66042
#        75421
#        87430
#        99345
#        111936
#        124376
#        136062
#        152987
#        165018
#        177137
#        190299
#        203063
#        215775
#        225587
#        238807
#        249492
#
# Disc length: 3517 seconds
#
# Revision: 0
# Processed by: cddbd v1.5.1PL0 Copyright (c) Steve Scherf et al.
# Submitted via: ExactAudioCopy v0.95b2
#
DISCID=2e0dbb17
DTITLE=Stevie Wonder - Stevie at the Beach - Uptight 2-for-1
DYEAR=1900
DGENRE=R&B
TTITLE0=Castles in the Sand
TTITLE1=Ebb Tide
TTITLE2=Sad Boy
TTITLE3=Red Sails in the Sunset
TTITLE4=The Beachcomber
TTITLE5=Castles in the Sand (inst)
TTITLE6=Happy Street
TTITLE7=The Party at the Beach House
TTITLE8=Hey Harmonica Man
TTITLE9=Beach Stomp
TTITLE10=Beyond the Sea
TTITLE11=Love a Go Go
TTITLE12=Hold Me
TTITLE13=Blowin' in the Wind
TTITLE14=Nothing's Too Good for My Baby
TTITLE15=Teach Me Tonight
TTITLE16=Uptight (Everything's Alright)
TTITLE17=Ain't That Asking for Trouble
TTITLE18=I Want My Baby Back
TTITLE19=Pretty Little Angel
TTITLE20=Music Talk
TTITLE21=Contract on Love
TTITLE22=With a Child's Heart
EXTD=
EXTT0=
EXTT1=
EXTT2=
EXTT3=
EXTT4=
EXTT5=
EXTT6=
EXTT7=
EXTT8=
EXTT9=
EXTT10=
EXTT11=
EXTT12=
EXTT13=
EXTT14=
EXTT15=
EXTT16=
EXTT17=
EXTT18=
EXTT19=
EXTT20=
EXTT21=
EXTT22=
PLAYORDER=
